<svg width="992" height="128" viewBox="0 0 992 128" fill="none" xmlns="http://www.w3.org/2000/svg">
<path d="M41.7248 124V126H43.7248V124H41.7248ZM41.7248 43.91L43.5429 43.0767L39.7248 43.91H41.7248ZM78.4327 124L76.6146 124.833L77.1493 126H78.4327V124ZM117.143 124V126H118.426L118.961 124.833L117.143 124ZM153.851 43.91H155.851L152.033 43.0767L153.851 43.91ZM153.851 124H151.851V126H153.851V124ZM195.564 124V126H197.564V124H195.564ZM195.564 3.86499H197.564V1.86499H195.564V3.86499ZM130.491 3.86499V1.86499H129.206L128.672 3.03387L130.491 3.86499ZM97.7878 75.4454L95.9687 76.2766L97.7878 80.2582L99.6069 76.2766L97.7878 75.4454ZM65.0844 3.86499L66.9035 3.03387L66.3695 1.86499H65.0844V3.86499ZM0.0112505 3.86499V1.86499H-1.98875V3.86499H0.0112505ZM0.0112505 124H-1.98875V126H0.0112505V124ZM43.7248 124V43.91H39.7248V124H43.7248ZM39.9067 44.7433L76.6146 124.833L80.2508 123.167L43.5429 43.0767L39.9067 44.7433ZM78.4327 126H117.143V122H78.4327V126ZM118.961 124.833L155.669 44.7433L152.033 43.0767L115.325 123.167L118.961 124.833ZM151.851 43.91V124H155.851V43.91H151.851ZM153.851 126H195.564V122H153.851V126ZM197.564 124V3.86499H193.564V124H197.564ZM195.564 1.86499H130.491V5.86499H195.564V1.86499ZM128.672 3.03387L95.9687 74.6143L99.6069 76.2766L132.31 4.69611L128.672 3.03387ZM99.6069 74.6143L66.9035 3.03387L63.2653 4.69611L95.9687 76.2766L99.6069 74.6143ZM65.0844 1.86499H0.0112505V5.86499H65.0844V1.86499ZM-1.98875 3.86499V124H2.01125V3.86499H-1.98875ZM0.0112505 126H41.7248V122H0.0112505V126ZM208.95 38.9044H206.95V40.9044H208.95V38.9044ZM259.841 38.9044H261.841V36.9044H259.841V38.9044ZM259.841 124H257.841V126H259.841V124ZM301.555 124V126H303.555V124H301.555ZM301.555 38.9044V36.9044H299.555V38.9044H301.555ZM352.445 38.9044V40.9044H354.445V38.9044H352.445ZM352.445 3.86499H354.445V1.86499H352.445V3.86499ZM208.95 3.86499V1.86499H206.95V3.86499H208.95ZM208.95 40.9044H259.841V36.9044H208.95V40.9044ZM257.841 38.9044V124H261.841V38.9044H257.841ZM259.841 126H301.555V122H259.841V126ZM303.555 124V38.9044H299.555V124H303.555ZM301.555 40.9044H352.445V36.9044H301.555V40.9044ZM354.445 38.9044V3.86499H350.445V38.9044H354.445ZM352.445 1.86499H208.95V5.86499H352.445V1.86499ZM206.95 3.86499V38.9044H210.95V3.86499H206.95ZM453.052 95.3011L451.241 96.1503L453.052 100.011L454.862 96.1503L453.052 95.3011ZM410.17 3.86499L411.981 3.01579L411.441 1.86499H410.17V3.86499ZM365.787 3.86499V1.86499H362.611L363.983 4.72923L365.787 3.86499ZM423.352 124L421.548 124.864L422.092 126H423.352V124ZM482.752 124V126H484.011L484.555 124.864L482.752 124ZM540.316 3.86499L542.12 4.72923L543.492 1.86499H540.316V3.86499ZM495.933 3.86499V1.86499H494.662L494.122 3.01579L495.933 3.86499ZM454.862 94.4519L411.981 3.01579L408.359 4.7142L451.241 96.1503L454.862 94.4519ZM410.17 1.86499H365.787V5.86499H410.17V1.86499ZM363.983 4.72923L421.548 124.864L425.155 123.136L367.591 3.00075L363.983 4.72923ZM423.352 126H482.752V122H423.352V126ZM484.555 124.864L542.12 4.72923L538.513 3.00075L480.948 123.136L484.555 124.864ZM540.316 1.86499H495.933V5.86499H540.316V1.86499ZM494.122 3.01579L451.241 94.4519L454.862 96.1503L497.744 4.7142L494.122 3.01579ZM671.165 76.7803L670.513 74.8895L671.045 78.7766L671.165 76.7803ZM550.363 3.86499V1.86499H548.363V3.86499H550.363ZM550.363 124H548.363V126H550.363V124ZM592.076 124V126H594.076V124H592.076ZM592.076 93.2988V91.2988H590.076V93.2988H592.076ZM651.81 124H649.81V126H651.81V124ZM693.524 124V126H695.524V124H693.524ZM592.076 59.928H590.076V61.928H592.076V59.928ZM592.076 37.2358V35.2358H590.076V37.2358H592.076ZM671.817 78.671C679.396 76.0577 685.38 71.9063 689.445 65.8861C693.502 59.8795 695.524 52.1991 695.524 42.742H691.524C691.524 51.6388 689.624 58.4748 686.131 63.6474C682.646 68.8064 677.451 72.4972 670.513 74.8895L671.817 78.671ZM695.524 42.742C695.524 29.6744 691.215 19.3173 682.357 12.2887C673.581 5.32494 660.63 1.86499 643.801 1.86499V5.86499C660.176 5.86499 672.087 9.24606 679.871 15.4221C687.573 21.5332 691.524 30.6146 691.524 42.742H695.524ZM643.801 1.86499H550.363V5.86499H643.801V1.86499ZM548.363 3.86499V124H552.363V3.86499H548.363ZM550.363 126H592.076V122H550.363V126ZM594.076 124V93.2988H590.076V124H594.076ZM592.076 95.2988H638.462V91.2988H592.076V95.2988ZM638.462 95.2988C643.775 95.2988 646.323 96.0881 647.698 97.5204C649.097 98.9782 649.81 101.637 649.81 106.981H653.81C653.81 101.646 653.188 97.4639 650.583 94.7503C647.954 92.0113 643.827 91.2988 638.462 91.2988V95.2988ZM649.81 106.981V124H653.81V106.981H649.81ZM651.81 126H693.524V122H651.81V126ZM695.524 124V99.973H691.524V124H695.524ZM695.524 99.973C695.524 92.3938 693.266 86.2552 688.96 81.9018C684.667 77.5624 678.56 75.2221 671.286 74.7839L671.045 78.7766C677.619 79.1727 682.692 81.2541 686.116 84.715C689.526 88.1621 691.524 93.2028 691.524 99.973H695.524ZM633.79 39.2358C636.149 39.2358 638.244 39.2374 640.108 39.4051C641.973 39.5728 643.45 39.8964 644.596 40.4531C645.691 40.9848 646.523 41.7462 647.114 42.9215C647.729 44.1441 648.142 45.9317 648.142 48.5819H652.142C652.142 45.5591 651.678 43.0919 650.687 41.1234C649.673 39.1076 648.169 37.7416 646.344 36.8551C644.57 35.9935 642.543 35.6079 640.466 35.4211C638.388 35.2343 636.103 35.2358 633.79 35.2358V39.2358ZM648.142 48.5819C648.142 51.2321 647.729 53.0198 647.114 54.2423C646.523 55.4176 645.691 56.179 644.596 56.7107C643.45 57.2674 641.973 57.591 640.108 57.7588C638.244 57.9264 636.149 57.928 633.79 57.928V61.928C636.103 61.928 638.388 61.9296 640.466 61.7427C642.543 61.5559 644.57 61.1703 646.344 60.3088C648.169 59.4222 649.673 58.0562 650.687 56.0405C651.678 54.0719 652.142 51.6048 652.142 48.5819H648.142ZM633.79 57.928H592.076V61.928H633.79V57.928ZM594.076 59.928V37.2358H590.076V59.928H594.076ZM592.076 39.2358H633.79V35.2358H592.076V39.2358ZM705.205 84.4556V82.4556H703.096L703.208 84.5618L705.205 84.4556ZM783.126 47.5808L782.952 49.5732L782.954 49.5734L783.126 47.5808ZM805.985 41.4072H803.985V43.4072H805.985V41.4072ZM849.367 41.4072V43.4072H851.497L851.363 41.2816L849.367 41.4072ZM776.451 78.6157L776.603 76.6214L776.598 76.621L776.451 78.6157ZM748.587 84.4556H750.587V82.4556H748.587V84.4556ZM703.208 84.5618C703.641 92.7031 705.793 99.6595 709.632 105.489C713.47 111.317 718.923 115.911 725.795 119.439C739.471 126.46 758.925 129.337 783.126 129.337V125.337C759.105 125.337 740.433 122.458 727.622 115.88C721.249 112.609 716.367 108.443 712.973 103.289C709.581 98.1382 707.603 91.8923 707.202 84.3493L703.208 84.5618ZM783.126 129.337C805.468 129.337 823.682 126.883 836.368 120.378C842.751 117.105 847.784 112.781 851.21 107.195C854.636 101.608 856.372 94.8904 856.372 86.9584H852.372C852.372 94.2935 850.772 100.257 847.8 105.104C844.828 109.951 840.402 113.814 834.543 116.818C822.743 122.869 805.334 125.337 783.126 125.337V129.337ZM856.372 86.9584C856.372 78.6061 854.519 71.9314 850.901 66.6115C847.286 61.2974 842.035 57.5167 835.557 54.7326C822.725 49.218 804.551 47.4146 783.297 45.5881L782.954 49.5734C804.415 51.4177 821.864 53.2018 833.977 58.4075C839.971 60.9836 844.523 64.3464 847.593 68.861C850.66 73.3699 852.372 79.2092 852.372 86.9584H856.372ZM783.299 45.5883C768.904 44.3329 760.913 43.2178 756.53 41.8357C754.347 41.1473 753.341 40.4738 752.857 39.9245C752.448 39.4592 752.255 38.9051 752.255 37.9032H748.255C748.255 39.4877 748.584 41.1235 749.854 42.5666C751.05 43.9256 752.88 44.879 755.327 45.6506C760.204 47.1884 768.649 48.3259 782.952 49.5732L783.299 45.5883ZM752.255 37.9032C752.255 37.2225 752.414 36.7104 752.785 36.248C753.189 35.7447 753.984 35.1283 755.573 34.5462C758.806 33.3621 764.633 32.5617 774.783 32.5617V28.5617C764.577 28.5617 758.14 29.3463 754.198 30.7902C752.2 31.522 750.68 32.4803 749.665 33.7447C748.618 35.0498 748.255 36.4983 748.255 37.9032H752.255ZM774.783 32.5617C785.351 32.5617 792.871 33.3191 797.693 34.9394C800.088 35.7441 801.656 36.7103 802.615 37.756C803.529 38.7521 803.985 39.9203 803.985 41.4072H807.985C807.985 38.973 807.189 36.825 805.563 35.0523C803.983 33.3293 801.724 32.0742 798.967 31.1478C793.486 29.3059 785.406 28.5617 774.783 28.5617V32.5617ZM805.985 43.4072H849.367V39.4072H805.985V43.4072ZM851.363 41.2816C850.481 27.2669 843.194 16.4669 830.121 9.26699C817.163 2.13009 798.545 -1.47209 774.783 -1.47209V2.52791C798.24 2.52791 816.08 6.10046 828.192 12.7707C840.189 19.3781 846.584 29.0177 847.371 41.5327L851.363 41.2816ZM774.783 -1.47209C754.103 -1.47209 736.757 1.71477 724.504 8.16454C712.159 14.6633 704.873 24.5669 704.873 37.7364H708.873C708.873 26.3783 715.02 17.6777 726.367 11.7041C737.808 5.68151 754.417 2.52791 774.783 2.52791V-1.47209ZM704.873 37.7364C704.873 44.6893 706.299 50.7249 709.305 55.8985C712.312 61.0731 716.823 65.2534 722.785 68.6154C734.625 75.2917 752.403 78.8552 776.305 80.6103L776.598 76.621C752.78 74.8722 735.768 71.3444 724.75 65.1312C719.283 62.0484 715.346 58.3345 712.764 53.8889C710.18 49.4423 708.873 44.1318 708.873 37.7364H704.873ZM776.3 80.6099C791.739 81.7847 800.125 82.652 804.674 83.9772C806.926 84.633 807.886 85.3095 808.342 85.8868C808.766 86.4221 808.99 87.1654 808.99 88.6269H812.99C812.99 86.8347 812.735 84.9918 811.479 83.405C810.257 81.86 808.339 80.8785 805.793 80.1368C800.748 78.6673 791.865 77.7826 776.603 76.6214L776.3 80.6099ZM808.99 88.6269C808.99 89.6692 808.799 90.3952 808.367 90.9951C807.919 91.6165 807.034 92.3469 805.174 93.026C801.368 94.415 794.307 95.3033 781.457 95.3033V99.3033C794.303 99.3033 802.008 98.4397 806.545 96.7836C808.856 95.9401 810.537 94.8247 811.612 93.3344C812.702 91.8225 812.99 90.1708 812.99 88.6269H808.99ZM781.457 95.3033C769.196 95.3033 761.319 93.9268 756.578 91.8068C754.231 90.7574 752.749 89.5683 751.855 88.3663C750.978 87.1882 750.587 85.8935 750.587 84.4556H746.587C746.587 86.6884 747.218 88.8351 748.646 90.7542C750.056 92.6494 752.161 94.2134 754.945 95.4583C760.466 97.9268 769.024 99.3033 781.457 99.3033V95.3033ZM748.587 82.4556H705.205V86.4556H748.587V82.4556ZM867.783 3.86499V1.86499H865.783V3.86499H867.783ZM867.783 124H865.783V126H867.783V124ZM991.255 124V126H993.255V124H991.255ZM991.255 92.2977H993.255V90.2977H991.255V92.2977ZM909.497 92.2977H907.497V94.2977H909.497V92.2977ZM909.497 79.7836V77.7836H907.497V79.7836H909.497ZM987.918 79.7836V81.7836H989.918V79.7836H987.918ZM987.918 48.0814H989.918V46.0814H987.918V48.0814ZM909.497 48.0814H907.497V50.0814H909.497V48.0814ZM909.497 35.5673V33.5673H907.497V35.5673H909.497ZM991.255 35.5673V37.5673H993.255V35.5673H991.255ZM991.255 3.86499H993.255V1.86499H991.255V3.86499ZM865.783 3.86499V124H869.783V3.86499H865.783ZM867.783 126H991.255V122H867.783V126ZM993.255 124V92.2977H989.255V124H993.255ZM991.255 90.2977H909.497V94.2977H991.255V90.2977ZM911.497 92.2977V79.7836H907.497V92.2977H911.497ZM909.497 81.7836H987.918V77.7836H909.497V81.7836ZM989.918 79.7836V48.0814H985.918V79.7836H989.918ZM987.918 46.0814H909.497V50.0814H987.918V46.0814ZM911.497 48.0814V35.5673H907.497V48.0814H911.497ZM909.497 37.5673H991.255V33.5673H909.497V37.5673ZM993.255 35.5673V3.86499H989.255V35.5673H993.255ZM991.255 1.86499H867.783V5.86499H991.255V1.86499Z" fill="white"/>
</svg>
